<svg width="28" height="28" viewBox="0 0 28 28" fill="none" xmlns="http://www.w3.org/2000/svg">
<path d="M21.1906 24.064C21.1906 19.304 17.9697 15.4373 14.0007 15.4373C10.0317 15.4373 6.8108 19.3057 6.8108 24.064H5.3723C5.29413 22.1101 5.78694 20.1758 6.79049 18.4975C7.79403 16.8192 9.26483 15.4697 11.0231 14.614C10.3762 14.224 9.81242 13.7105 9.364 13.1027C8.91558 12.4949 8.59128 11.8048 8.4096 11.0716C8.22792 10.3385 8.19242 9.57675 8.30515 8.82989C8.41787 8.08304 8.67659 7.3657 9.06655 6.71884C9.45647 6.07196 9.96999 5.50821 10.5778 5.05979C11.1856 4.61137 11.8758 4.28706 12.6089 4.10538C13.342 3.9237 14.1038 3.88821 14.8506 4.00093C15.5975 4.11365 16.3148 4.37238 16.9617 4.76234C17.6086 5.15226 18.1723 5.66578 18.6207 6.27357C19.0692 6.88137 19.3935 7.57154 19.5751 8.30468C19.7568 9.03782 19.7923 9.79956 19.6796 10.5464C19.5669 11.2933 19.3081 12.0106 18.9182 12.6575C18.435 13.4591 17.7634 14.1308 16.9617 14.614C18.7227 15.4676 20.1966 16.8162 21.2029 18.4946C22.2091 20.173 22.7042 22.1085 22.6273 24.064H21.1906ZM14.0007 14.0015C14.5672 14.0015 15.1281 13.8899 15.6515 13.6731C16.1748 13.4563 16.6504 13.1386 17.051 12.738C17.4515 12.3374 17.7693 11.8619 17.9861 11.3385C18.2028 10.8151 18.3144 10.2542 18.3144 9.68772C18.3144 9.12123 18.2028 8.56028 17.9861 8.03691C17.7693 7.51355 17.4515 7.038 17.051 6.63743C16.6504 6.23686 16.1748 5.91912 15.6515 5.70233C15.1281 5.48554 14.5672 5.37397 14.0007 5.37397C12.8566 5.37397 11.7594 5.82845 10.9504 6.63743C10.1414 7.44642 9.68693 8.54364 9.68693 9.68772C9.68763 10.8313 10.1424 11.9279 10.9513 12.7363C11.7602 13.5447 12.8571 13.9988 14.0007 13.9988V14.0015Z" fill="white" stroke="#F6F1EB" stroke-width="0.4375"/>
</svg>
