<svg width="100" height="100" viewBox="0 0 100 100" fill="none" xmlns="http://www.w3.org/2000/svg">
<rect width="100" height="100" rx="50" fill="#211709"/>
<path d="M31.6967 25.8241L30.6445 26.7949L72.111 71.1362L73.1631 70.1653L31.6967 25.8241Z" fill="white"/>
<path d="M72.112 25.814L30.6455 70.1553L31.6976 71.1261L73.1641 26.7849L72.112 25.814Z" fill="white"/>
<path d="M27.9765 46.6061C27.9765 46.164 28.1971 45.9448 28.6459 45.9448C32.2173 45.9448 35.7887 45.9448 39.3601 45.9448C39.8051 45.9448 40.022 46.164 40.022 46.6135C40.022 47.4604 40.0295 48.3074 40.0183 49.1581C40.0145 49.4887 39.9884 49.823 39.9248 50.1499C39.577 51.9627 38.5523 53.3223 37.0303 54.3365C36.8246 54.4739 36.6152 54.6151 36.3422 54.6151C34.6294 54.6076 32.9129 54.6151 31.2001 54.6076C31.0655 54.6076 30.9121 54.5668 30.7925 54.4999C30.1343 54.1433 29.5958 53.6492 29.1657 53.0437C29.0909 52.936 29.0087 52.9063 28.8815 52.8951C27.4155 52.7651 26.2301 52.1448 25.4298 50.8929C24.9249 50.1016 24.8501 49.2621 25.2839 48.4189C25.628 47.7465 26.2226 47.375 26.9518 47.2153C27.2809 47.141 27.625 47.1187 27.9802 47.0667C27.9802 46.9218 27.9802 46.7658 27.9802 46.6098L27.9765 46.6061ZM26.5143 48.6306C26.0842 48.9835 26.0019 49.6447 26.3049 50.1908C26.7274 50.9486 27.5053 51.5132 28.4327 51.7027C27.9728 50.5771 27.9316 49.4144 27.984 48.2183C27.4193 48.1811 26.9294 48.2851 26.5143 48.6306Z" fill="white"/>
<path d="M34.3975 44.4664C34.8275 44.2398 35.2501 44.0021 35.4558 43.5192C35.5979 43.1885 35.5268 42.8654 35.3399 42.5905C35.0594 42.1744 34.7415 41.7881 34.4349 41.3869C34.2815 41.1863 34.1207 40.9931 33.9749 40.7888C33.5635 40.2093 33.4476 39.6224 34.0609 38.9463C33.5934 39.1915 33.1334 39.4515 32.9539 39.9976C32.8679 40.2576 32.9165 40.5213 33.0549 40.7405C33.2905 41.112 33.5523 41.4649 33.8141 41.8178C34.016 42.089 34.2516 42.3379 34.4461 42.6165C34.9397 43.3223 34.921 43.7903 34.3975 44.4627V44.4664Z" fill="white"/>
<path d="M32.1874 41.5615C31.8471 41.7101 31.5928 41.8958 31.4394 42.1856C31.331 42.3936 31.3422 42.6165 31.4581 42.8097C31.6264 43.0846 31.8209 43.3483 32.0153 43.6083C32.1799 43.8238 32.3743 44.0207 32.5277 44.2399C32.8642 44.7191 32.853 45.0274 32.5052 45.4992C33.141 45.3803 33.485 44.7191 33.1672 44.173C33.0101 43.9055 32.7932 43.6752 32.6025 43.4263C32.4454 43.222 32.2734 43.0288 32.1238 42.8208C31.8284 42.4048 31.8358 42.0816 32.1275 41.6618C32.1425 41.6432 32.15 41.621 32.1874 41.5615Z" fill="white"/>
<path d="M70.4823 39.5184C70.3103 39.6632 70.1457 39.7933 69.9924 39.9307C68.676 41.0971 67.5354 42.401 66.8211 44.0206C66.2377 45.3431 66.0358 46.699 66.4659 48.1106C66.7501 49.0356 67.2811 49.8194 67.8757 50.566C68.1188 50.8707 68.3581 51.179 68.605 51.4799C69.4913 52.5534 69.6857 53.7607 69.3043 55.0795C69.2482 55.2726 69.1958 55.4658 69.136 55.685C69.1921 55.6813 69.237 55.685 69.2744 55.6701C70.8712 55.0943 72.3633 54.3365 73.575 53.1218C74.5698 52.1225 75.1232 50.9412 74.9774 49.5036C74.8876 48.6418 74.581 47.8468 74.0911 47.1448C73.5339 46.3461 72.9093 45.5957 72.311 44.8267C71.6191 43.9389 70.9535 43.0362 70.501 41.9998C70.2542 41.4277 70.0747 40.8408 70.2242 40.2093C70.2803 39.979 70.3851 39.7635 70.4785 39.5146L70.4823 39.5184Z" fill="white"/>
<path d="M68.3647 55.514C68.8322 54.4256 68.6901 53.4041 68.1142 52.4308C67.8487 51.985 67.5495 51.5467 67.2017 51.1603C66.1509 49.9939 65.6236 48.6009 65.3431 47.0964C65.2645 46.6766 65.2683 46.242 65.2309 45.7554C64.9654 46.2606 64.6924 46.7286 64.4642 47.2153C64.0865 48.0325 63.8472 48.8943 63.8248 49.8007C63.7874 51.3609 64.4418 52.5868 65.6722 53.5192C66.4874 54.1359 67.3251 54.7265 68.1516 55.3283C68.2189 55.3766 68.2825 55.436 68.3647 55.5066V55.514Z" fill="white"/>
<path d="M56.8797 31.4608C56.8498 32.8353 56.6778 34.1763 56.0869 35.4393C55.6568 36.3606 55.0473 37.1258 54.1348 37.6199C53.5738 37.9207 52.9718 38.0545 52.336 38.0322C52.3023 38.0322 52.265 38.0248 52.2313 38.0173C51.8125 37.9319 51.7115 37.7239 51.9022 37.3412C52.1976 36.7432 52.4482 36.1265 52.5866 35.469C52.8147 34.3806 52.7698 33.2922 52.5679 32.2075C52.4108 31.3716 52.2163 30.5432 52.0854 29.7037C51.9396 28.7639 51.8573 27.8166 51.9583 26.8656C52.0069 26.4162 52.1004 25.9741 52.3061 25.5655C52.523 25.1383 52.7922 25.0194 53.2522 25.1569C53.8244 25.3277 54.2993 25.6621 54.7257 26.0632C55.9261 27.2 56.5731 28.6153 56.7862 30.2349C56.8386 30.6435 56.8536 31.0559 56.8835 31.4645L56.8797 31.4608Z" fill="white"/>
<path d="M51.5171 25.0863C51.3562 25.5507 51.188 25.9704 51.0608 26.4013C50.6868 27.6644 50.6008 28.9422 50.9823 30.2164C51.2029 30.9556 51.3936 31.7023 51.4759 32.4675C51.6629 34.1838 51.5657 35.8702 50.8589 37.475C50.6681 37.9096 50.7803 37.8911 50.2643 37.7536C49.535 37.5605 48.9703 37.1073 48.4879 36.5463C47.7213 35.6474 47.2912 34.5887 47.0967 33.4445C46.8237 31.81 46.8537 30.1792 47.3623 28.5819C47.7288 27.434 48.3121 26.4162 49.2957 25.6733C49.8379 25.2609 50.4438 24.9823 51.1468 25.0009C51.274 25.0009 51.3974 25.0603 51.5171 25.09V25.0863Z" fill="white"/>
<path d="M51.9888 74.9716C50.7921 74.9716 49.5917 74.9716 48.395 74.9753C48.2305 74.9753 48.1444 74.9233 48.0696 74.7822C47.8116 74.2881 47.49 73.8238 47.3965 73.2554C47.2843 72.5756 47.3554 71.9218 47.6732 71.3052C48.0958 70.4991 48.5259 69.6967 48.9634 68.898C49.0008 68.8311 49.1168 68.7643 49.1953 68.7643C51.0577 68.7568 52.9238 68.7606 54.7861 68.7568C54.917 68.7568 54.9768 68.8051 55.0367 68.9129C55.4331 69.6632 55.837 70.4062 56.2371 71.1566C56.7756 72.167 56.7719 73.1811 56.2371 74.1915C56.0988 74.4516 55.9978 74.7896 55.7771 74.9308C55.5752 75.0571 55.2311 74.9716 54.9507 74.9716C53.9634 74.9716 52.9761 74.9716 51.9888 74.9716ZM55.9454 73.5377V73.0065H48.0285V73.5377H55.9454Z" fill="white"/>
<path d="M55.2463 64.8193C55.0444 65.2837 54.8574 65.7257 54.633 66.2458C55.3735 66.0415 56.0503 65.8558 56.7422 65.6663C56.7945 65.8446 56.8432 66.0081 56.903 66.2049C56.5215 66.3127 56.1476 66.4204 55.7325 66.5393C55.9606 66.6359 56.1476 66.7176 56.357 66.8067C56.2897 66.9776 56.2261 67.1373 56.1551 67.3157C55.6652 67.1262 55.1902 66.9479 54.7153 66.7659C54.7003 66.7844 54.6854 66.7993 54.6704 66.8179C54.8611 67.2674 55.0556 67.7206 55.2575 68.1923H48.7393C48.9337 67.7317 49.1244 67.2859 49.3152 66.8364C49.0459 66.7399 49.1731 66.5207 49.1618 66.3498C49.1581 66.2904 49.2366 66.2198 49.3002 66.1195C49.1319 65.7295 48.9412 65.2874 48.743 64.8231H55.2575L55.2463 64.8193Z" fill="white"/>
<path d="M49.4005 63.2774C49.1275 62.6534 48.8658 62.0516 48.5928 61.4238H55.3018C55.0587 61.9476 54.8193 62.4565 54.5763 62.984C54.752 63.0657 54.9128 63.1437 55.0849 63.2254C55.3317 62.7017 55.5673 62.1965 55.8066 61.6912C55.9063 61.4807 56.0821 61.3941 56.3339 61.4312C56.3115 61.4906 56.289 61.5464 56.2629 61.5984C55.8515 62.4193 55.4364 63.2366 55.0288 64.0575C54.9652 64.1876 54.8941 64.2358 54.7483 64.2358C52.9084 64.2321 51.0684 64.2358 49.2285 64.2284C49.1462 64.2284 49.0191 64.1801 48.9854 64.117C48.5292 63.2329 48.0842 62.3413 47.6279 61.4386C47.8448 61.3681 47.972 61.3978 48.0655 61.6244C48.3235 62.2485 48.604 62.8614 48.8845 63.4929C49.0565 63.4186 49.2136 63.3517 49.4005 63.2737V63.2774Z" fill="white"/>
<path d="M47.6172 59.2135C50.3883 59.559 53.1108 59.897 55.8632 60.2388C55.7697 60.4356 55.7061 60.6102 55.6089 60.7625C55.5715 60.8183 55.4518 60.8443 55.3696 60.8443C54.2252 60.848 53.0846 60.8443 51.9403 60.8443C50.8146 60.8443 49.6852 60.8443 48.5596 60.8443C48.395 60.8443 48.309 60.7997 48.2455 60.6437C48.0547 60.1793 47.8453 59.7187 47.6172 59.2061V59.2135Z" fill="white"/>
<path d="M56.346 59.2139C56.2712 59.3773 56.2188 59.5036 56.1515 59.6225C56.1328 59.6596 56.0655 59.6968 56.0281 59.6931C55.4933 59.6262 54.9623 59.5519 54.4313 59.4813C54.42 59.4813 54.4088 59.4628 54.3789 59.4405C55.0334 59.3662 55.6691 59.2956 56.346 59.2176V59.2139Z" fill="white"/>
</svg>
