<svg width="28" height="28" viewBox="0 0 28 28" fill="none" xmlns="http://www.w3.org/2000/svg">
<path d="M17.5985 16.5746C18.2691 15.7706 18.7746 14.8423 19.0861 13.8428C19.3977 12.8433 19.5092 11.7922 19.4143 10.7496C19.3194 9.70703 19.0199 8.69335 18.533 7.76656C18.046 6.83977 17.3812 6.01803 16.5765 5.34833C15.7723 4.67791 14.844 4.17251 13.8444 3.86099C12.8448 3.54947 11.7937 3.43793 10.751 3.53276C9.70831 3.62758 8.69453 3.92691 7.76756 4.41364C6.84059 4.90037 6.01859 5.56496 5.34854 6.36945C4.67801 7.17346 4.17251 8.10173 3.86096 9.10122C3.5494 10.1007 3.43789 11.1518 3.53281 12.1944C3.62773 13.237 3.9272 14.2507 4.41412 15.1775C4.90104 16.1043 5.56585 16.926 6.37054 17.5957C7.80275 18.7887 9.60779 19.442 11.4718 19.442C13.3358 19.442 15.1408 18.7887 16.573 17.5957L21.7285 22.7503L22.7505 21.7292L17.595 16.5746H17.5985ZM16.118 16.0863C14.8944 17.3125 13.2337 18.0024 11.5013 18.0042C9.76901 18.006 8.1069 17.3196 6.88066 16.096C6.27345 15.4903 5.79153 14.7709 5.46241 13.9789C5.13329 13.1869 4.96344 12.3378 4.96254 11.4801C4.96165 10.6225 5.12973 9.77305 5.4572 8.98037C5.78467 8.18769 6.26509 7.46729 6.87104 6.86033C8.09472 5.63411 9.75539 4.94422 11.4877 4.94242C13.2201 4.94061 14.8822 5.62704 16.1084 6.8507L16.118 6.86033C17.3365 8.0886 18.0178 9.75023 18.0122 11.4804C18.0066 13.2105 17.3147 14.8677 16.0883 16.0881L16.118 16.0863Z" fill="white" stroke="#F6F1EB" stroke-width="0.4375"/>
</svg>
