<svg width="33" height="33" viewBox="0 0 33 33" fill="none" xmlns="http://www.w3.org/2000/svg">
<path d="M24.7093 8.67627V21.6763C24.7093 21.8089 24.6566 21.9361 24.5628 22.0298C24.469 22.1236 24.3419 22.1763 24.2093 22.1763C24.0767 22.1763 23.9495 22.1236 23.8557 22.0298C23.7619 21.9361 23.7093 21.8089 23.7093 21.6763V9.88377L8.56301 25.03C8.46919 25.1238 8.34194 25.1765 8.20926 25.1765C8.07658 25.1765 7.94933 25.1238 7.85551 25.03C7.76169 24.9362 7.70898 24.809 7.70898 24.6763C7.70898 24.5436 7.76169 24.4163 7.85551 24.3225L23.0018 9.17627H11.2093C11.0767 9.17627 10.9495 9.12359 10.8557 9.02982C10.7619 8.93606 10.7093 8.80888 10.7093 8.67627C10.7093 8.54366 10.7619 8.41648 10.8557 8.32272C10.9495 8.22895 11.0767 8.17627 11.2093 8.17627H24.2093C24.3419 8.17627 24.469 8.22895 24.5628 8.32272C24.6566 8.41648 24.7093 8.54366 24.7093 8.67627Z" fill="#41210D"/>
</svg>
