<svg width="33" height="33" viewBox="0 0 33 33" fill="none" xmlns="http://www.w3.org/2000/svg">
<path d="M24.7093 8.90039V21.9004C24.7093 22.033 24.6566 22.1602 24.5628 22.2539C24.469 22.3477 24.3419 22.4004 24.2093 22.4004C24.0767 22.4004 23.9495 22.3477 23.8557 22.2539C23.7619 22.1602 23.7093 22.033 23.7093 21.9004V10.1079L8.56301 25.2541C8.46919 25.348 8.34194 25.4007 8.20926 25.4007C8.07658 25.4007 7.94933 25.348 7.85551 25.2541C7.76169 25.1603 7.70898 25.0331 7.70898 24.9004C7.70898 24.7677 7.76169 24.6405 7.85551 24.5466L23.0018 9.40039H11.2093C11.0767 9.40039 10.9495 9.34771 10.8557 9.25394C10.7619 9.16018 10.7093 9.033 10.7093 8.90039C10.7093 8.76778 10.7619 8.64061 10.8557 8.54684C10.9495 8.45307 11.0767 8.40039 11.2093 8.40039H24.2093C24.3419 8.40039 24.469 8.45307 24.5628 8.54684C24.6566 8.64061 24.7093 8.76778 24.7093 8.90039Z" fill="white"/>
</svg>
