<svg width="33" height="33" viewBox="0 0 33 33" fill="none" xmlns="http://www.w3.org/2000/svg">
<path d="M28.209 16.355C28.209 16.6202 28.1036 16.8746 27.9161 17.0621C27.7286 17.2496 27.4742 17.355 27.209 17.355H5.20898C4.94377 17.355 4.68941 17.2496 4.50188 17.0621C4.31434 16.8746 4.20898 16.6202 4.20898 16.355C4.20898 16.0898 4.31434 15.8354 4.50188 15.6479C4.68941 15.4603 4.94377 15.355 5.20898 15.355H27.209C27.4742 15.355 27.7286 15.4603 27.9161 15.6479C28.1036 15.8354 28.209 16.0898 28.209 16.355ZM5.20898 9.35498H27.209C27.4742 9.35498 27.7286 9.24962 27.9161 9.06209C28.1036 8.87455 28.209 8.6202 28.209 8.35498C28.209 8.08976 28.1036 7.83541 27.9161 7.64787C27.7286 7.46034 27.4742 7.35498 27.209 7.35498H5.20898C4.94377 7.35498 4.68941 7.46034 4.50188 7.64787C4.31434 7.83541 4.20898 8.08976 4.20898 8.35498C4.20898 8.6202 4.31434 8.87455 4.50188 9.06209C4.68941 9.24962 4.94377 9.35498 5.20898 9.35498ZM27.209 23.355H5.20898C4.94377 23.355 4.68941 23.4603 4.50188 23.6479C4.31434 23.8354 4.20898 24.0898 4.20898 24.355C4.20898 24.6202 4.31434 24.8746 4.50188 25.0621C4.68941 25.2496 4.94377 25.355 5.20898 25.355H27.209C27.4742 25.355 27.7286 25.2496 27.9161 25.0621C28.1036 24.8746 28.209 24.6202 28.209 24.355C28.209 24.0898 28.1036 23.8354 27.9161 23.6479C27.7286 23.4603 27.4742 23.355 27.209 23.355Z" fill="white"/>
</svg>
