<svg width="33" height="33" viewBox="0 0 33 33" fill="none" xmlns="http://www.w3.org/2000/svg">
<path d="M17.9165 17.0625L12.9165 22.0625C12.8236 22.1554 12.7133 22.2291 12.5919 22.2794C12.4705 22.3297 12.3404 22.3555 12.209 22.3555C12.0776 22.3555 11.9475 22.3297 11.8261 22.2794C11.7047 22.2291 11.5944 22.1554 11.5015 22.0625C11.4086 21.9696 11.3349 21.8593 11.2846 21.7379C11.2343 21.6165 11.2084 21.4864 11.2084 21.355C11.2084 21.2236 11.2343 21.0935 11.2846 20.9721C11.3349 20.8507 11.4086 20.7404 11.5015 20.6475L14.7952 17.355H3.20898C2.94377 17.355 2.68941 17.2496 2.50188 17.0621C2.31434 16.8746 2.20898 16.6202 2.20898 16.355C2.20898 16.0898 2.31434 15.8354 2.50188 15.6479C2.68941 15.4603 2.94377 15.355 3.20898 15.355H14.7952L11.5015 12.0625C11.3138 11.8748 11.2084 11.6203 11.2084 11.355C11.2084 11.0896 11.3138 10.8351 11.5015 10.6475C11.6891 10.4598 11.9436 10.3544 12.209 10.3544C12.4743 10.3544 12.7288 10.4598 12.9165 10.6475L17.9165 15.6475C18.0095 15.7404 18.0832 15.8506 18.1335 15.972C18.1839 16.0934 18.2098 16.2236 18.2098 16.355C18.2098 16.4864 18.1839 16.6165 18.1335 16.7379C18.0832 16.8593 18.0095 16.9696 17.9165 17.0625ZM25.209 4.35498H17.209C16.9438 4.35498 16.6894 4.46034 16.5019 4.64787C16.3143 4.83541 16.209 5.08976 16.209 5.35498C16.209 5.6202 16.3143 5.87455 16.5019 6.06209C16.6894 6.24962 16.9438 6.35498 17.209 6.35498H24.209V26.355H17.209C16.9438 26.355 16.6894 26.4603 16.5019 26.6479C16.3143 26.8354 16.209 27.0898 16.209 27.355C16.209 27.6202 16.3143 27.8746 16.5019 28.0621C16.6894 28.2496 16.9438 28.355 17.209 28.355H25.209C25.4742 28.355 25.7286 28.2496 25.9161 28.0621C26.1036 27.8746 26.209 27.6202 26.209 27.355V5.35498C26.209 5.08976 26.1036 4.83541 25.9161 4.64787C25.7286 4.46034 25.4742 4.35498 25.209 4.35498Z" fill="white"/>
</svg>
