<svg width="33" height="29" viewBox="0 0 33 29" fill="none" xmlns="http://www.w3.org/2000/svg">
<path d="M21.4005 24.4189C21.4005 19.6589 18.1796 15.7923 14.2106 15.7923C10.2416 15.7923 7.02077 19.6607 7.02077 24.4189H5.58227C5.50409 22.4651 5.9969 20.5308 7.00045 18.8525C8.00399 17.1742 9.47479 15.8247 11.233 14.9689C10.5861 14.579 10.0224 14.0655 9.57396 13.4577C9.12554 12.8499 8.80124 12.1597 8.61956 11.4266C8.43788 10.6935 8.40239 9.93173 8.51511 9.18487C8.62783 8.43802 8.88656 7.72068 9.27652 7.07382C9.66643 6.42694 10.18 5.86319 10.7877 5.41477C11.3955 4.96635 12.0857 4.64204 12.8189 4.46036C13.552 4.27868 14.3137 4.24319 15.0606 4.35591C15.8074 4.46863 16.5248 4.72736 17.1716 5.11732C17.8185 5.50724 18.3823 6.02076 18.8307 6.62856C19.2791 7.23635 19.6034 7.92652 19.7851 8.65966C19.9668 9.3928 20.0023 10.1545 19.8895 10.9014C19.7768 11.6482 19.5181 12.3656 19.1281 13.0124C18.6449 13.8141 17.9733 14.4857 17.1716 14.9689C18.9326 15.8226 20.4065 17.1711 21.4128 18.8496C22.4191 20.528 22.9141 22.4635 22.8373 24.4189H21.4005ZM14.2106 14.3564C14.7771 14.3564 15.3381 14.2449 15.8614 14.0281C16.3848 13.8113 16.8604 13.4935 17.2609 13.093C17.6615 12.6924 17.9792 12.2169 18.196 11.6935C18.4128 11.1701 18.5244 10.6092 18.5244 10.0427C18.5244 9.47621 18.4128 8.91526 18.196 8.3919C17.9792 7.86853 17.6615 7.39298 17.2609 6.99241C16.8604 6.59185 16.3848 6.2741 15.8614 6.05731C15.3381 5.84052 14.7771 5.72895 14.2106 5.72895C13.0666 5.72895 11.9693 6.18343 11.1604 6.99241C10.3514 7.8014 9.89689 8.89862 9.89689 10.0427C9.89759 11.1863 10.3524 12.2829 11.1613 13.0913C11.9702 13.8997 13.067 14.3538 14.2106 14.3538V14.3564Z" fill="white" stroke="#F6F1EB" stroke-width="0.4375"/>
</svg>
